<!DOCTYPE svg PUBLIC "-//W3C//DTD SVG 20010904//EN" "http://www.w3.org/TR/2001/REC-SVG-20010904/DTD/svg10.dtd">
<svg version="1.0" xmlns="http://www.w3.org/2000/svg" width="1042px" height="274px" viewBox="0 0 10420 2740" preserveAspectRatio="xMidYMid meet">
<g id="layer101" fill="#030203" stroke="none">
 <path d="M1166 2194 c-320 -71 -573 -321 -646 -638 -46 -196 -13 -426 83 -598 112 -199 310 -351 532 -409 112 -30 298 -30 410 0 170 44 340 153 448 286 67 83 110 163 148 275 28 82 33 112 37 225 5 165 -16 265 -88 410 -82 166 -209 293 -375 375 -55 27 -127 56 -160 65 -87 24 -301 29 -389 9z m554 -504 c56 -28 92 -80 98 -140 7 -78 -5 -116 -51 -164 -34 -36 -53 -46 -98 -55 l-56 -12 -2 -47 c-2 -58 -41 -142 -83 -177 -62 -52 -108 -69 -188 -69 -64 0 -83 4 -129 29 -64 35 -105 82 -130 150 -15 40 -24 51 -47 56 -102 21 -176 113 -176 218 0 95 45 171 125 210 40 20 57 21 370 21 308 0 330 -1 367 -20z"/>
 <path d="M4290 2126 c-13 -8 -36 -38 -50 -67 -18 -38 -32 -55 -48 -57 -21 -3 -22 0 -22 62 l0 66 -50 0 -50 0 0 -190 0 -190 101 0 c144 0 189 27 189 111 0 36 -23 84 -44 92 -13 5 -11 14 10 52 14 25 32 45 40 45 16 0 18 28 4 64 -11 29 -40 34 -80 12z m-37 -237 c18 -29 1 -49 -43 -49 -39 0 -40 1 -40 36 0 34 1 35 36 32 21 -2 42 -10 47 -19z"/>
 <path d="M4577 2119 c-37 -20 -74 -76 -59 -91 4 -4 26 -11 50 -17 37 -8 44 -7 49 7 9 24 24 32 60 32 68 0 51 -35 -32 -65 -71 -26 -96 -44 -112 -82 -19 -48 -3 -105 40 -135 44 -32 152 -33 194 -2 31 23 61 69 51 79 -4 4 -26 11 -49 16 -39 9 -45 8 -59 -11 -22 -29 -75 -25 -75 5 0 15 14 25 65 43 108 37 146 103 105 181 -30 60 -151 81 -228 40z"/>
 <path d="M5410 2127 c-15 -7 -37 -36 -53 -69 -20 -42 -33 -58 -47 -58 -18 0 -20 7 -20 65 l0 65 -50 0 -50 0 0 -190 0 -190 98 0 c108 0 157 16 180 60 19 36 8 98 -21 128 l-25 25 21 43 c13 28 28 44 39 44 16 0 18 5 12 38 -4 20 -9 40 -11 45 -6 11 -45 8 -73 -6z m-41 -235 c15 -28 -5 -52 -44 -52 -33 0 -35 2 -35 35 0 33 2 35 35 35 23 0 38 -6 44 -18z"/>
 <path d="M6145 2117 c-59 -33 -86 -89 -86 -176 -1 -113 47 -178 144 -196 93 -18 197 33 197 95 0 34 -2 36 -57 45 -38 6 -43 5 -43 -12 0 -29 -20 -43 -60 -43 -55 0 -75 28 -75 104 0 43 6 70 18 89 16 25 23 28 65 25 38 -2 49 -8 57 -25 11 -26 27 -28 74 -12 26 9 30 15 25 33 -26 86 -166 126 -259 73z"/>
 <path d="M2420 1940 l0 -190 99 0 c111 0 153 11 175 45 26 39 16 105 -18 127 -6 4 0 15 17 28 22 17 27 30 27 64 0 88 -47 116 -195 116 l-105 0 0 -190z m167 104 c54 -15 32 -64 -28 -64 -38 0 -39 1 -39 35 0 30 3 35 23 35 12 0 32 -3 44 -6z m13 -179 c0 -22 -4 -25 -40 -25 -36 0 -40 3 -40 25 0 23 4 25 40 25 36 0 40 -2 40 -25z"/>
 <path d="M2780 1940 l0 -190 125 0 125 0 0 45 0 45 -75 0 -75 0 0 30 0 30 61 0 60 0 -3 43 -3 42 -57 3 c-54 3 -58 5 -58 27 0 23 3 24 78 27 l77 3 3 43 3 42 -130 0 -131 0 0 -190z"/>
 <path d="M3170 1985 l0 -145 -55 0 -55 0 0 -45 0 -45 330 0 330 0 0 45 0 45 -55 0 -55 0 0 145 0 145 -55 0 -55 0 0 -144 0 -144 -57 -4 c-32 -1 -84 -2 -115 0 l-58 3 0 144 0 145 -50 0 -50 0 0 -145z"/>
 <path d="M3760 1940 l0 -190 125 0 125 0 0 45 0 45 -75 0 -75 0 0 30 0 30 60 0 60 0 0 45 0 45 -60 0 c-59 0 -60 1 -60 28 l0 27 77 0 78 0 3 43 3 42 -130 0 -131 0 0 -190z"/>
 <path d="M4870 1940 l0 -190 130 0 130 0 0 45 0 45 -81 0 -80 0 3 28 c3 26 6 27 66 30 l63 3 -3 42 -3 42 -62 3 c-59 3 -63 4 -63 27 0 23 3 24 78 27 l77 3 3 43 3 42 -130 0 -131 0 0 -190z"/>
 <path d="M5577 1958 c-36 -95 -69 -181 -73 -191 -6 -16 -1 -18 51 -15 l58 3 38 105 c42 119 35 121 88 -25 l28 -80 52 -3 c28 -2 51 0 51 3 0 4 -86 231 -135 358 -5 12 -18 17 -49 17 l-43 0 -66 -172z"/>
 <path d="M5900 1940 l0 -190 50 0 50 0 0 190 0 190 -50 0 -50 0 0 -190z"/>
 <path d="M6450 1940 l0 -190 130 0 130 0 0 45 0 45 -75 0 -75 0 0 30 0 30 61 0 60 0 -3 43 -3 42 -57 3 c-54 3 -58 5 -58 27 0 23 3 24 73 27 l72 3 3 43 3 42 -130 0 -131 0 0 -190z"/>
 <path d="M4605 1630 c-94 -14 -166 -49 -226 -109 -91 -92 -132 -205 -133 -366 0 -253 110 -409 326 -460 124 -29 286 -12 375 40 83 49 140 145 131 221 -3 28 -6 29 -106 52 -56 13 -109 21 -117 18 -9 -3 -15 -19 -15 -41 0 -24 -9 -44 -28 -66 -24 -27 -37 -33 -85 -37 -121 -10 -194 38 -217 141 -8 34 -11 97 -8 163 5 116 21 166 70 211 24 22 86 43 128 43 78 0 155 -49 166 -106 8 -42 14 -46 50 -34 16 5 62 18 102 30 53 15 72 25 72 38 0 31 -57 136 -91 169 -84 80 -240 116 -394 93z"/>
 <path d="M6070 1631 c-107 -23 -166 -97 -158 -202 9 -120 102 -181 312 -205 l58 -7 -5 -40 c-3 -23 -14 -47 -23 -54 -42 -31 -104 -2 -104 49 0 20 -4 29 -12 25 -7 -2 -57 -12 -110 -22 l-98 -17 0 -32 c0 -68 67 -133 164 -161 82 -24 235 -17 291 12 94 50 115 102 115 295 0 77 5 148 10 159 6 11 21 19 35 19 30 0 32 25 7 115 l-17 60 -50 3 c-68 5 -118 -12 -150 -49 l-26 -31 -23 25 c-47 51 -137 75 -216 58z m188 -187 c14 -16 22 -38 22 -61 l0 -35 -47 7 c-60 8 -91 28 -99 62 -16 61 75 81 124 27z"/>
 <path d="M7545 1636 c-5 -3 -22 -7 -38 -10 -15 -4 -45 -22 -67 -42 l-39 -35 -3 33 -3 33 -90 0 -90 0 0 -495 0 -495 113 -3 112 -3 0 189 0 189 48 -24 c41 -21 57 -24 122 -21 114 7 179 52 229 158 23 50 26 67 26 175 0 108 -3 125 -26 175 -34 73 -67 111 -126 142 -43 24 -142 43 -168 34z m50 -190 c62 -63 59 -282 -6 -316 -23 -13 -75 -13 -98 0 -46 24 -69 197 -37 274 27 66 96 86 141 42z"/>
 <path d="M8190 1627 c-168 -38 -248 -161 -238 -366 7 -149 51 -226 156 -278 53 -26 66 -28 177 -28 104 0 127 3 170 23 28 13 63 35 78 50 70 66 105 202 87 332 -18 129 -60 194 -154 240 -73 36 -187 47 -276 27z m144 -168 c39 -18 58 -70 58 -159 1 -131 -28 -180 -105 -180 -53 0 -72 13 -91 60 -18 46 -21 156 -6 212 19 66 82 95 144 67z"/>
 <path d="M9449 1630 c-63 -11 -129 -42 -157 -73 -26 -28 -46 -97 -32 -111 11 -11 180 -38 197 -32 7 3 13 12 13 21 0 33 106 48 135 19 15 -16 15 -18 -2 -35 -10 -10 -58 -30 -108 -44 -161 -46 -225 -108 -225 -217 0 -139 112 -215 304 -206 154 7 251 68 244 155 l-3 37 -75 13 c-41 7 -90 15 -107 18 -28 5 -33 3 -33 -13 0 -28 -24 -44 -62 -40 -25 2 -34 8 -36 25 -4 29 24 46 121 72 120 32 173 65 203 123 17 32 18 115 3 155 -16 44 -69 91 -124 112 -60 23 -190 33 -256 21z"/>
 <path d="M6814 1611 c-99 -45 -124 -109 -124 -322 l0 -148 -37 -3 -38 -3 -3 -82 -3 -82 43 -3 43 -3 3 -65 c4 -116 -2 -110 112 -110 l99 0 3 88 3 87 88 3 88 3 -3 82 -3 82 -87 3 -88 3 0 129 c0 146 9 183 42 178 15 -2 24 -13 30 -35 5 -18 12 -33 16 -33 14 0 137 42 146 50 15 14 -24 107 -59 141 -19 19 -49 39 -67 45 -52 19 -157 16 -204 -5z"/>
 <path d="M8897 1615 c-50 -17 -85 -50 -108 -100 -16 -34 -19 -66 -19 -207 l0 -167 -37 -3 -38 -3 -3 -82 -3 -83 40 0 39 0 7 -90 7 -90 104 0 104 0 0 90 0 90 90 0 91 0 -3 83 -3 82 -88 3 -88 3 3 152 3 152 25 0 c20 0 27 -7 35 -32 5 -18 14 -33 20 -33 31 1 140 50 143 65 10 46 -53 139 -112 166 -49 22 -153 25 -209 4z"/>
 <path d="M2385 1608 c-3 -7 -4 -213 -3 -458 l3 -445 155 -3 155 -2 105 314 104 315 42 -137 c24 -75 70 -216 102 -312 l59 -175 156 -3 157 -3 0 461 0 460 -116 0 -115 0 3 -289 3 -288 -96 286 -96 286 -100 3 -101 3 -30 -88 c-17 -48 -59 -172 -94 -274 l-64 -187 0 272 1 271 -113 3 c-84 2 -114 -1 -117 -10z"/>
 <path d="M3600 1160 l0 -460 120 0 120 0 0 460 0 460 -120 0 -120 0 0 -460z"/>
 <path d="M5190 1120 l0 -500 110 0 110 0 0 205 0 205 21 -21 c36 -36 99 -59 166 -59 75 0 108 11 151 53 54 53 62 98 62 374 l0 243 -109 0 -110 0 -3 -223 c-3 -243 -6 -257 -58 -257 -36 0 -76 32 -100 81 -18 34 -20 59 -20 219 l0 180 -110 0 -110 0 0 -500z"/>
 </g>

</svg>