<!DOCTYPE svg PUBLIC "-//W3C//DTD SVG 20010904//EN" "http://www.w3.org/TR/2001/REC-SVG-20010904/DTD/svg10.dtd">
<svg version="1.0" xmlns="http://www.w3.org/2000/svg" width="1600px" height="420px" viewBox="0 0 16000 4200" preserveAspectRatio="xMidYMid meet">
<g id="layer101" fill="#010001" stroke="none">
 <path d="M0 2100 l0 -2100 8000 0 8000 0 0 2100 0 2100 -8000 0 -8000 0 0 -2100z"/>
 </g>
<g id="layer102" fill="#ffffff" stroke="none">
 <path d="M0 2100 l0 -2100 8000 0 8000 0 0 2100 0 2100 -8000 0 -8000 0 0 -2100z m2323 1255 c432 -97 780 -395 934 -801 65 -170 77 -239 77 -459 0 -185 -2 -208 -26 -301 -87 -328 -269 -587 -543 -771 -289 -194 -656 -259 -1010 -178 -108 25 -315 115 -407 177 -264 180 -445 430 -533 739 -158 559 109 1184 626 1462 140 76 313 133 459 151 73 9 356 -3 423 -19z m4977 -108 c64 -31 90 -75 90 -150 0 -96 -47 -142 -182 -182 -103 -30 -138 -83 -75 -113 38 -19 85 -6 105 27 l17 28 64 -13 c35 -7 66 -15 69 -18 8 -9 -7 -52 -29 -80 -38 -49 -74 -61 -184 -61 -88 0 -105 3 -139 24 -54 34 -76 74 -76 142 0 95 39 135 181 185 109 39 137 73 87 108 -45 32 -119 13 -140 -36 -10 -23 -18 -28 -36 -23 -12 3 -42 8 -67 12 -50 6 -57 22 -30 73 49 96 224 134 345 77z m2393 12 c61 -16 137 -97 137 -148 0 -10 -40 -25 -95 -36 -27 -5 -32 -2 -42 25 -21 55 -111 77 -170 40 -39 -23 -51 -45 -64 -115 -22 -120 21 -215 105 -230 54 -11 110 20 114 63 4 35 9 37 62 23 19 -5 48 -12 63 -15 26 -6 28 -10 22 -39 -19 -90 -84 -136 -204 -144 -148 -10 -256 49 -294 162 -24 70 -23 200 3 268 49 132 191 189 363 146z m-2984 -39 c14 -67 14 -70 -7 -70 -23 0 -43 -23 -67 -78 -10 -23 -24 -47 -32 -54 -11 -9 -8 -14 16 -29 67 -40 92 -155 48 -219 -43 -65 -73 -75 -249 -78 l-158 -4 0 286 0 286 70 0 70 0 0 -101 0 -100 38 3 c35 3 39 6 72 74 19 40 42 80 50 90 20 23 68 43 107 44 30 0 32 -3 42 -50z m1704 43 c3 -5 8 -31 12 -60 6 -49 5 -52 -17 -55 -16 -2 -30 -17 -48 -54 -14 -29 -31 -59 -39 -68 -11 -13 -9 -19 18 -42 44 -37 61 -74 61 -136 0 -66 -24 -108 -76 -134 -32 -16 -66 -19 -196 -22 l-158 -4 0 286 0 286 70 0 70 0 0 -100 0 -100 33 0 c40 0 61 20 82 79 20 59 52 101 89 117 34 14 92 18 99 7z m-4362 -14 c89 -30 143 -113 120 -188 -13 -45 -55 -91 -83 -91 -15 0 -10 -8 22 -38 38 -37 40 -42 40 -96 0 -52 -3 -61 -33 -91 -45 -45 -89 -55 -254 -55 l-143 0 0 285 0 285 149 0 c84 0 163 -5 182 -11z m599 -49 l0 -60 -120 0 -120 0 0 -50 0 -50 95 0 95 0 0 -65 0 -65 -95 0 -95 0 0 -50 0 -50 120 0 120 0 0 -60 0 -60 -190 0 -190 0 0 285 0 285 190 0 190 0 0 -60z m370 -165 l0 -225 85 0 85 0 0 -60 0 -60 -240 0 -240 0 0 60 0 59 83 3 82 3 3 223 2 222 70 0 70 0 0 -225z m510 0 l0 -225 85 0 85 0 0 -60 0 -60 -240 0 -240 0 0 60 0 60 85 0 85 0 0 225 0 225 70 0 70 0 0 -225z m630 165 l0 -60 -120 0 -120 0 0 -50 0 -50 95 0 95 0 0 -65 0 -65 -95 0 -95 0 0 -50 0 -50 115 0 115 0 0 -60 0 -60 -185 0 -185 0 0 285 0 285 190 0 190 0 0 -60z m1710 0 l0 -60 -120 0 -120 0 0 -50 0 -50 95 0 95 0 0 -65 0 -65 -95 0 -95 0 0 -50 0 -50 120 0 120 0 0 -60 0 -60 -190 0 -190 0 0 285 0 285 190 0 190 0 0 -60z m950 -22 c18 -46 58 -150 90 -233 32 -82 67 -174 79 -202 l21 -53 -73 0 -72 0 -64 175 -65 176 -62 -171 c-34 -94 -64 -173 -67 -176 -2 -3 -38 -4 -79 -2 l-75 3 111 283 110 282 57 0 57 0 32 -82z m390 -203 l0 -285 -70 0 -70 0 0 285 0 285 70 0 70 0 0 -285z m1090 225 l0 -60 -120 0 -120 0 0 -50 0 -50 95 0 95 0 0 -65 0 -65 -95 0 -95 0 0 -50 0 -50 115 0 115 0 0 -60 0 -60 -185 0 -185 0 0 285 0 285 190 0 190 0 0 -60z m-2869 -723 c204 -58 333 -186 373 -373 7 -29 6 -30 -46 -43 -29 -7 -99 -26 -154 -42 -56 -16 -104 -29 -107 -29 -2 0 -7 17 -10 38 -18 107 -112 174 -254 181 -101 4 -169 -16 -226 -68 -77 -69 -106 -174 -106 -376 0 -185 20 -271 78 -338 54 -60 110 -80 231 -81 97 -1 109 1 151 26 54 32 78 74 86 154 5 44 9 53 22 49 9 -2 66 -16 127 -30 62 -13 118 -27 125 -29 8 -2 27 -7 43 -11 l29 -6 -6 -70 c-14 -165 -116 -278 -312 -344 -108 -36 -328 -43 -455 -13 -242 55 -402 211 -466 453 -27 100 -27 389 -1 490 67 256 235 418 486 470 87 18 316 13 392 -8z m2131 -10 c31 -15 73 -46 93 -68 20 -23 38 -39 39 -37 1 1 13 18 25 35 38 56 100 85 195 90 50 4 90 1 102 -5 16 -8 26 -36 43 -119 13 -59 26 -114 28 -120 4 -9 -7 -13 -36 -13 -71 0 -75 -15 -82 -290 -6 -245 -11 -277 -54 -342 -64 -97 -158 -132 -360 -132 -119 0 -151 4 -210 23 -90 29 -112 42 -157 85 -48 47 -65 80 -74 143 l-6 51 43 7 c24 3 88 15 143 26 133 26 132 26 141 -17 10 -56 44 -84 102 -84 27 0 58 7 70 15 25 17 43 71 43 126 l0 35 -122 13 c-296 32 -435 130 -446 313 -3 55 0 76 21 121 55 121 160 178 318 174 70 -3 96 -8 141 -30z m2196 19 c135 -36 240 -147 293 -311 34 -101 34 -308 1 -412 -30 -98 -93 -189 -162 -235 -73 -49 -126 -62 -240 -62 -83 0 -102 3 -146 26 -27 15 -56 34 -63 42 -8 9 -17 16 -22 16 -5 0 -9 -132 -9 -295 l0 -295 -160 0 -160 0 0 755 0 755 130 0 130 0 0 -60 c0 -33 4 -60 10 -60 6 0 10 4 10 8 0 22 95 102 142 121 64 24 169 27 246 7z m1152 -7 c95 -26 143 -54 204 -118 85 -91 119 -202 119 -381 0 -172 -31 -278 -110 -369 -86 -101 -202 -144 -393 -145 -186 -1 -283 30 -382 121 -89 84 -132 210 -132 388 0 134 23 232 71 312 44 74 70 101 135 141 118 71 335 94 488 51z m1902 6 c193 -41 288 -140 288 -302 0 -94 -20 -143 -78 -195 -61 -55 -119 -81 -267 -118 -130 -32 -185 -64 -185 -106 0 -54 77 -82 139 -49 30 15 41 33 41 66 0 18 4 19 38 13 20 -4 93 -17 162 -28 118 -20 125 -22 128 -46 9 -60 -42 -146 -111 -189 -18 -11 -63 -30 -102 -42 -60 -20 -90 -23 -210 -23 -122 1 -148 4 -200 24 -108 41 -166 96 -197 184 -38 112 -14 223 66 301 56 56 131 90 305 139 115 33 141 49 141 87 0 81 -220 79 -237 -2 -6 -33 -25 -36 -110 -20 -26 5 -83 15 -125 22 l-78 13 0 33 c0 71 48 143 126 189 99 58 312 81 466 49z m-4008 -29 c80 -39 152 -142 159 -229 2 -30 1 -30 -106 -68 -60 -22 -113 -36 -118 -33 -5 3 -9 17 -9 32 0 44 -26 72 -65 72 -24 0 -38 -6 -45 -19 -6 -12 -10 -110 -10 -250 l0 -231 135 0 135 0 0 -120 0 -120 -135 0 -135 0 0 -135 0 -135 -149 0 c-169 0 -161 -5 -161 89 0 32 -3 86 -6 120 l-7 61 -63 0 -64 0 0 120 0 120 60 0 60 0 0 223 c0 296 16 373 94 450 66 67 134 87 272 83 87 -2 110 -7 158 -30z m3179 4 c65 -31 119 -96 151 -182 15 -39 23 -74 19 -78 -7 -7 -216 -80 -226 -80 -3 0 -7 16 -10 36 -8 47 -33 74 -67 74 -52 0 -55 -13 -55 -264 l0 -231 138 -3 137 -3 0 -119 0 -120 -140 0 -140 0 0 -135 0 -135 -149 0 -148 0 -7 98 c-4 53 -10 114 -13 135 l-6 37 -58 0 -59 0 0 120 0 120 60 0 60 0 0 243 c0 263 8 318 54 387 33 50 85 89 149 112 75 27 242 21 310 -12z m-9975 -429 c-2 -242 -3 -439 -2 -438 1 1 42 124 92 272 50 149 118 344 150 435 l59 165 149 3 149 2 69 -202 c37 -112 105 -314 150 -450 44 -137 85 -248 90 -248 5 0 6 21 2 48 -3 26 -9 228 -13 450 l-6 402 177 0 176 0 -2 -692 -3 -693 -234 0 -234 0 -23 65 c-33 96 -249 763 -275 850 l-22 75 -19 -65 c-10 -36 -83 -258 -162 -495 l-143 -430 -232 -3 -231 -2 0 695 0 695 171 0 171 0 -4 -439z m1880 -253 l-3 -693 -172 -3 -173 -2 0 695 0 695 175 0 175 0 -2 -692z m2412 421 c0 -268 0 -271 25 -322 45 -94 98 -137 167 -137 91 0 98 29 98 416 l0 314 165 0 165 0 0 -331 c0 -360 -8 -444 -48 -527 -57 -118 -185 -170 -349 -143 -80 13 -126 35 -180 86 l-43 42 0 -319 0 -318 -165 0 -165 0 0 755 0 755 165 0 165 0 0 -271z"/>
 <path d="M1590 2626 c-76 -17 -127 -46 -181 -103 -84 -86 -118 -193 -99 -309 23 -143 145 -269 279 -290 34 -5 42 -11 47 -33 41 -190 219 -331 419 -331 120 1 207 35 296 118 76 70 117 152 131 261 l10 80 47 6 c197 26 319 225 251 408 -39 105 -125 176 -234 196 -86 16 -894 13 -966 -3z"/>
 <path d="M6400 2875 l0 -65 58 0 c66 0 92 18 92 63 0 39 -42 67 -101 67 l-49 0 0 -65z"/>
 <path d="M8110 2875 l0 -65 58 0 c68 0 92 18 92 68 0 42 -31 62 -97 62 l-53 0 0 -65z"/>
 <path d="M3860 3085 l0 -55 63 0 c94 0 129 34 91 88 -13 19 -24 22 -85 22 l-69 0 0 -55z"/>
 <path d="M3860 2860 l0 -50 59 0 c63 0 91 15 91 50 0 35 -28 50 -91 50 l-59 0 0 -50z"/>
 <path d="M9436 2249 c-20 -15 -26 -29 -26 -58 0 -74 68 -120 178 -121 l62 0 0 48 c0 60 -26 110 -71 134 -46 25 -109 23 -143 -3z"/>
 <path d="M11503 2240 c-101 -61 -127 -340 -44 -473 27 -44 88 -72 138 -64 52 9 84 35 113 93 23 45 25 60 25 180 0 125 -1 133 -30 189 -46 90 -128 120 -202 75z"/>
 <path d="M12651 2243 c-19 -10 -43 -30 -54 -44 -62 -85 -61 -354 1 -439 25 -34 79 -60 125 -60 47 0 108 30 131 64 53 82 62 308 15 402 -13 26 -36 57 -51 68 -38 27 -123 32 -167 9z"/>
 </g>

</svg>