<!DOCTYPE svg PUBLIC "-//W3C//DTD SVG 20010904//EN" "http://www.w3.org/TR/2001/REC-SVG-20010904/DTD/svg10.dtd">
<svg version="1.0" xmlns="http://www.w3.org/2000/svg" width="1060px" height="906px" viewBox="0 0 10600 9060" preserveAspectRatio="xMidYMid meet">
<g id="layer101" fill="#010001" stroke="none">
 <path d="M4565 8468 c-721 -92 -1375 -366 -1964 -820 -136 -105 -541 -510 -647 -648 -470 -608 -737 -1256 -831 -2020 -34 -276 -23 -744 23 -1038 178 -1131 826 -2120 1794 -2737 151 -96 490 -270 650 -332 341 -133 672 -214 1055 -259 191 -23 627 -23 820 0 799 93 1511 393 2112 891 137 113 402 378 518 518 501 604 807 1336 890 2129 31 305 17 742 -36 1053 -112 666 -394 1291 -827 1831 -106 133 -341 376 -477 493 -608 525 -1381 864 -2158 946 -218 22 -723 19 -922 -7z m2073 -2306 c344 -91 586 -328 684 -668 20 -68 23 -100 22 -239 -1 -144 -3 -169 -28 -250 -49 -162 -149 -321 -272 -435 -151 -140 -358 -225 -582 -237 l-104 -6 5 -46 c9 -78 -13 -280 -44 -401 -34 -136 -129 -336 -211 -445 -198 -264 -503 -455 -817 -510 -127 -23 -379 -20 -502 5 -245 50 -460 164 -642 339 -196 189 -300 372 -382 673 l-15 56 -73 12 c-145 24 -322 95 -452 183 -82 55 -230 206 -288 294 -67 101 -124 228 -154 341 -22 85 -25 118 -25 262 0 144 3 177 26 263 49 190 154 375 291 512 172 174 408 289 640 314 44 5 701 8 1460 7 l1380 -2 83 -22z"/>
 </g>
<g id="layer102" fill="#414041" stroke="none">
 <path d="M4565 8468 c-721 -92 -1375 -366 -1964 -820 -136 -105 -541 -510 -647 -648 -470 -608 -737 -1256 -831 -2020 -34 -276 -23 -744 23 -1038 178 -1131 826 -2120 1794 -2737 151 -96 490 -270 650 -332 341 -133 672 -214 1055 -259 191 -23 627 -23 820 0 799 93 1511 393 2112 891 137 113 402 378 518 518 501 604 807 1336 890 2129 31 305 17 742 -36 1053 -112 666 -394 1291 -827 1831 -106 133 -341 376 -477 493 -608 525 -1381 864 -2158 946 -218 22 -723 19 -922 -7z m876 2 c383 -38 825 -153 1178 -306 346 -151 701 -371 981 -609 135 -115 457 -449 554 -575 470 -608 742 -1286 821 -2042 20 -194 20 -588 0 -784 -42 -412 -154 -834 -320 -1210 -385 -869 -1089 -1582 -1948 -1976 -411 -187 -823 -299 -1287 -349 -172 -19 -594 -16 -775 5 -490 56 -905 176 -1324 381 -593 291 -1087 710 -1481 1255 -162 225 -369 610 -468 871 -260 687 -327 1417 -196 2129 119 645 397 1248 818 1774 105 132 444 471 572 572 605 482 1283 767 2044 858 140 17 682 20 831 6z"/>
 <path d="M3720 6190 c-152 -15 -311 -71 -456 -161 -103 -64 -261 -214 -324 -308 -151 -226 -214 -472 -190 -738 12 -132 38 -230 94 -349 64 -134 116 -206 240 -329 177 -175 329 -252 621 -312 l40 -8 28 -105 c125 -468 482 -821 955 -947 84 -23 123 -27 292 -30 171 -4 208 -2 299 17 432 88 795 394 961 807 21 54 48 136 59 183 23 101 43 304 35 364 l-6 43 103 6 c141 9 243 37 377 103 95 47 128 70 204 142 141 135 220 261 275 439 24 80 27 103 27 253 1 154 -1 171 -28 255 -55 175 -134 303 -260 423 -125 118 -240 182 -416 231 l-95 26 -1380 1 c-759 1 -1414 -2 -1455 -6z m2918 -28 c344 -91 586 -328 684 -668 20 -68 23 -100 22 -239 -1 -144 -3 -169 -28 -250 -49 -162 -149 -321 -272 -435 -151 -140 -358 -225 -582 -237 l-104 -6 5 -46 c9 -78 -13 -280 -44 -401 -34 -136 -129 -336 -211 -445 -198 -264 -503 -455 -817 -510 -127 -23 -379 -20 -502 5 -245 50 -460 164 -642 339 -196 189 -300 372 -382 673 l-15 56 -73 12 c-145 24 -322 95 -452 183 -82 55 -230 206 -288 294 -67 101 -124 228 -154 341 -22 85 -25 118 -25 262 0 144 3 177 26 263 49 190 154 375 291 512 172 174 408 289 640 314 44 5 701 8 1460 7 l1380 -2 83 -22z"/>
 </g>
<g id="layer103" fill="#646464" stroke="none">
 <path d="M4733 8483 c15 -2 37 -2 50 0 12 2 0 4 -28 4 -27 0 -38 -2 -22 -4z"/>
 <path d="M5193 8483 c37 -2 96 -2 130 0 34 2 4 3 -68 3 -71 0 -99 -1 -62 -3z"/>
 <path d="M4643 8473 c9 -2 25 -2 35 0 9 3 1 5 -18 5 -19 0 -27 -2 -17 -5z"/>
 <path d="M5443 8473 c9 -2 25 -2 35 0 9 3 1 5 -18 5 -19 0 -27 -2 -17 -5z"/>
 <path d="M4553 8463 c9 -2 25 -2 35 0 9 3 1 5 -18 5 -19 0 -27 -2 -17 -5z"/>
 <path d="M5533 8463 c9 -2 25 -2 35 0 9 3 1 5 -18 5 -19 0 -27 -2 -17 -5z"/>
 <path d="M5603 8453 c9 -2 25 -2 35 0 9 3 1 5 -18 5 -19 0 -27 -2 -17 -5z"/>
 <path d="M6600 8175 c14 -8 30 -14 35 -14 6 0 -1 6 -15 14 -14 8 -29 14 -35 14 -5 0 1 -6 15 -14z"/>
 <path d="M3440 8155 c-14 -8 -20 -14 -15 -14 6 0 21 6 35 14 14 8 21 14 15 14 -5 0 -21 -6 -35 -14z"/>
 <path d="M6680 8140 c19 -11 40 -19 45 -19 6 0 -6 8 -25 19 -19 11 -39 19 -45 19 -5 0 6 -8 25 -19z"/>
 <path d="M3288 8084 c-49 -24 -88 -46 -88 -49 0 -5 179 82 189 91 15 14 -26 -3 -101 -42z"/>
 <path d="M6880 8045 c0 -2 18 -14 40 -25 22 -11 40 -18 40 -15 0 2 -18 14 -40 25 -22 11 -40 18 -40 15z"/>
 <path d="M3138 8004 c-38 -20 -36 -28 2 -9 17 9 30 18 30 20 0 7 -1 6 -32 -11z"/>
 <path d="M7075 7935 c11 -9 29 -21 40 -26 l20 -10 -20 16 c-11 9 -29 21 -40 26 l-20 10 20 -16z"/>
 <path d="M2935 7884 c-51 -34 -69 -52 -29 -29 35 20 82 54 74 55 -3 0 -23 -12 -45 -26z"/>
 <path d="M7155 7885 c11 -9 29 -21 40 -26 l20 -10 -20 16 c-11 9 -29 21 -40 26 l-20 10 20 -16z"/>
 <path d="M2793 7789 c-24 -17 -43 -32 -43 -35 0 -3 20 9 45 26 25 17 45 33 45 35 0 7 -2 6 -47 -26z"/>
 <path d="M7280 7806 c0 -3 20 -19 45 -36 25 -17 45 -29 45 -26 0 3 -20 19 -45 36 -25 17 -45 29 -45 26z"/>
 <path d="M2663 7694 c-40 -30 -73 -57 -73 -60 0 -2 34 21 75 52 65 49 83 65 73 64 -2 0 -36 -25 -75 -56z"/>
 <path d="M7460 7677 c0 -3 18 -20 40 -37 22 -17 40 -29 40 -27 0 3 -18 20 -40 37 -22 17 -40 29 -40 27z"/>
 <path d="M2520 7579 l-55 -51 58 47 c50 42 64 55 55 55 -2 0 -28 -23 -58 -51z"/>
 <path d="M7722 7451 c65 -62 168 -165 230 -229 62 -65 97 -99 78 -77 -66 76 -265 277 -345 347 -44 39 -27 21 37 -41z"/>
 <path d="M2270 7343 l-185 -188 188 185 c103 102 187 186 187 187 0 8 -18 -10 -190 -184z"/>
 <path d="M2045 7108 l-40 -43 43 40 c23 21 42 40 42 42 0 8 -9 0 -45 -39z"/>
 <path d="M8142 6998 c40 -52 86 -109 101 -128 l29 -35 -28 40 c-44 64 -153 203 -165 210 -5 4 23 -35 63 -87z"/>
 <path d="M1934 6973 c-81 -106 -95 -125 -73 -103 23 23 151 190 145 190 -3 0 -35 -39 -72 -87z"/>
 <path d="M1810 6805 c-17 -25 -29 -45 -26 -45 3 0 19 20 36 45 17 25 29 45 26 45 -3 0 -19 -20 -36 -45z"/>
 <path d="M8331 6738 c57 -86 94 -135 74 -98 -19 34 -126 190 -131 190 -2 0 23 -42 57 -92z"/>
 <path d="M1724 6678 c-4 -7 -14 -24 -22 -38 -14 -24 -13 -24 3 -5 20 24 37 55 31 55 -3 0 -8 -6 -12 -12z"/>
 <path d="M8485 6490 c9 -16 18 -30 21 -30 2 0 -2 14 -11 30 -9 17 -18 30 -21 30 -2 0 2 -13 11 -30z"/>
 <path d="M1605 6480 c-9 -16 -13 -30 -11 -30 3 0 12 14 21 30 9 17 13 30 11 30 -3 0 -12 -13 -21 -30z"/>
 <path d="M8577 6315 c32 -63 59 -113 61 -111 4 5 -106 226 -113 226 -3 0 21 -52 52 -115z"/>
 <path d="M1509 6299 c-22 -45 -39 -83 -37 -85 2 -2 23 35 46 81 23 47 40 85 37 85 -3 0 -23 -36 -46 -81z"/>
 <path d="M4593 6193 c295 -2 779 -2 1075 0 295 1 53 2 -538 2 -591 0 -833 -1 -537 -2z"/>
 <path d="M3723 6183 c15 -2 37 -2 50 0 12 2 0 4 -28 4 -27 0 -38 -2 -22 -4z"/>
 <path d="M6483 6183 c15 -2 37 -2 50 0 12 2 0 4 -28 4 -27 0 -38 -2 -22 -4z"/>
 <path d="M8651 6165 c0 -5 8 -26 19 -45 11 -19 19 -30 19 -25 0 6 -8 26 -19 45 -11 19 -19 31 -19 25z"/>
 <path d="M1432 6135 c-17 -37 -14 -45 4 -12 9 16 14 31 11 33 -2 2 -9 -7 -15 -21z"/>
 <path d="M6780 6115 c14 -8 30 -14 35 -14 6 0 -1 6 -15 14 -14 8 -29 14 -35 14 -5 0 1 -6 15 -14z"/>
 <path d="M1402 6065 c-17 -37 -14 -45 4 -12 9 16 14 31 11 33 -2 2 -9 -7 -15 -21z"/>
 <path d="M3308 6054 c-38 -20 -36 -28 2 -9 17 9 30 18 30 20 0 7 -1 6 -32 -11z"/>
 <path d="M7037 5957 c29 -27 71 -69 94 -95 23 -26 32 -33 21 -17 -21 30 -110 118 -147 145 -11 8 3 -7 32 -33z"/>
 <path d="M3069 5873 c-61 -65 -93 -103 -88 -103 2 0 35 34 72 75 76 83 87 102 16 28z"/>
 <path d="M8764 5883 c21 -67 65 -186 65 -177 1 13 -57 185 -65 193 -4 3 -3 -4 0 -16z"/>
 <path d="M7195 5773 c15 -24 30 -43 32 -43 7 0 -31 61 -46 73 -8 7 -2 -7 14 -30z"/>
 <path d="M2908 5667 c-23 -33 -80 -149 -76 -152 2 -2 24 37 50 86 46 87 55 111 26 66z"/>
 <path d="M1225 5540 c-4 -17 -5 -34 -2 -36 2 -3 7 10 11 27 8 42 0 50 -9 9z"/>
 <path d="M7354 5265 c0 -49 1 -71 3 -48 2 23 2 64 0 90 -2 26 -3 8 -3 -42z"/>
 <path d="M2753 5195 c0 -33 2 -45 4 -27 2 18 2 45 0 60 -2 15 -4 0 -4 -33z"/>
 <path d="M7342 5120 c0 -19 2 -27 5 -17 2 9 2 25 0 35 -3 9 -5 1 -5 -18z"/>
 <path d="M8962 5080 c0 -19 2 -27 5 -17 2 9 2 25 0 35 -3 9 -5 1 -5 -18z"/>
 <path d="M1132 5040 c0 -19 2 -27 5 -17 2 9 2 25 0 35 -3 9 -5 1 -5 -18z"/>
 <path d="M2753 4985 c0 -33 2 -45 4 -27 2 18 2 45 0 60 -2 15 -4 0 -4 -33z"/>
 <path d="M8973 4995 c0 -22 2 -30 4 -17 2 12 2 30 0 40 -3 9 -5 -1 -4 -23z"/>
 <path d="M1123 4955 c0 -22 2 -30 4 -17 2 12 2 30 0 40 -3 9 -5 -1 -4 -23z"/>
 <path d="M8983 4905 c0 -22 2 -30 4 -17 2 12 2 30 0 40 -3 9 -5 -1 -4 -23z"/>
 <path d="M1113 4850 c0 -25 2 -35 4 -22 2 12 2 32 0 45 -2 12 -4 2 -4 -23z"/>
 <path d="M7252 4845 c-12 -25 -20 -45 -17 -45 7 0 47 81 43 86 -3 2 -14 -17 -26 -41z"/>
 <path d="M8993 4755 c0 -44 2 -61 4 -37 2 23 2 59 0 80 -2 20 -4 1 -4 -43z"/>
 <path d="M1104 4550 c0 -118 2 -167 3 -107 2 59 2 155 0 215 -1 59 -3 10 -3 -108z"/>
 <path d="M7164 4703 c-15 -21 -55 -68 -88 -104 l-61 -66 70 71 c64 65 123 136 112 136 -3 0 -17 -17 -33 -37z"/>
 <path d="M2830 4666 c0 -11 50 -106 55 -106 3 0 -7 24 -21 53 -28 55 -34 65 -34 53z"/>
 <path d="M6955 4499 c-52 -40 -57 -46 -17 -23 29 16 73 55 61 53 -2 0 -22 -14 -44 -30z"/>
 <path d="M8993 4335 c0 -44 2 -61 4 -37 2 23 2 59 0 80 -2 20 -4 1 -4 -43z"/>
 <path d="M3055 4331 c22 -23 63 -61 90 -84 58 -47 39 -27 -60 64 -41 37 -54 46 -30 20z"/>
 <path d="M6630 4355 c-25 -7 -36 -13 -25 -13 11 0 38 5 60 13 52 17 24 17 -35 0z"/>
 <path d="M6523 4333 c9 -2 25 -2 35 0 9 3 1 5 -18 5 -19 0 -27 -2 -17 -5z"/>
 <path d="M6362 4293 c1 -37 1 -37 5 -6 4 31 6 32 56 36 l52 3 -57 2 -58 2 2 -37z"/>
 <path d="M1113 4245 c0 -27 2 -38 4 -22 2 15 2 37 0 50 -2 12 -4 0 -4 -28z"/>
 <path d="M8983 4185 c0 -22 2 -30 4 -17 2 12 2 30 0 40 -3 9 -5 -1 -4 -23z"/>
 <path d="M3207 4199 c12 -15 73 -53 73 -46 0 2 -19 17 -42 32 -24 16 -38 22 -31 14z"/>
 <path d="M6363 4150 c0 -30 2 -43 4 -27 2 15 2 39 0 55 -2 15 -4 2 -4 -28z"/>
 <path d="M1123 4135 c0 -22 2 -30 4 -17 2 12 2 30 0 40 -3 9 -5 -1 -4 -23z"/>
 <path d="M3290 4145 c0 -7 121 -67 126 -63 2 2 -26 18 -61 36 -36 17 -65 30 -65 27z"/>
 <path d="M8973 4095 c0 -22 2 -30 4 -17 2 12 2 30 0 40 -3 9 -5 -1 -4 -23z"/>
 <path d="M1132 4040 c0 -19 2 -27 5 -17 2 9 2 25 0 35 -3 9 -5 1 -5 -18z"/>
 <path d="M6353 4035 c0 -22 2 -30 4 -17 2 12 2 30 0 40 -3 9 -5 -1 -4 -23z"/>
 <path d="M8962 4010 c0 -19 2 -27 5 -17 2 9 2 25 0 35 -3 9 -5 1 -5 -18z"/>
 <path d="M6306 3834 c-4 -14 -5 -28 -3 -31 3 -2 8 8 11 23 4 14 5 28 3 31 -3 2 -8 -8 -11 -23z"/>
 <path d="M6227 3635 c-20 -41 -35 -75 -32 -75 7 0 77 141 73 146 -2 2 -21 -30 -41 -71z"/>
 <path d="M3905 3560 c9 -16 18 -30 21 -30 2 0 -2 14 -11 30 -9 17 -18 30 -21 30 -2 0 2 -13 11 -30z"/>
 <path d="M1241 3500 c0 -8 4 -24 9 -35 5 -13 9 -14 9 -5 0 8 -4 24 -9 35 -5 13 -9 14 -9 5z"/>
 <path d="M1261 3430 c0 -8 4 -24 9 -35 5 -13 9 -14 9 -5 0 8 -4 24 -9 35 -5 13 -9 14 -9 5z"/>
 <path d="M6074 3393 c-21 -27 -61 -73 -89 -104 -49 -55 -49 -55 10 5 60 61 131 146 122 146 -3 0 -22 -21 -43 -47z"/>
 <path d="M4020 3395 c26 -36 164 -176 205 -207 22 -17 8 -1 -32 36 -40 37 -98 95 -130 129 -32 34 -51 53 -43 42z"/>
 <path d="M8792 3293 c-12 -37 -20 -69 -18 -71 2 -2 14 27 26 63 12 36 20 68 18 70 -2 3 -14 -26 -26 -62z"/>
 <path d="M5788 3132 c-36 -26 -74 -53 -85 -60 -15 -10 -14 -11 7 -1 34 16 137 87 145 99 9 14 8 13 -67 -38z"/>
 <path d="M4292 3138 c30 -26 88 -62 88 -55 0 2 -26 21 -57 41 -32 20 -46 27 -31 14z"/>
 <path d="M4390 3075 c0 -7 141 -77 146 -73 2 2 -30 21 -71 41 -41 20 -75 35 -75 32z"/>
 <path d="M8662 2955 c-17 -37 -14 -45 4 -12 9 16 14 31 11 33 -2 2 -9 -7 -15 -21z"/>
 <path d="M5435 2960 c-13 -5 -14 -9 -5 -9 8 0 24 4 35 9 13 5 14 9 5 9 -8 0 -24 -4 -35 -9z"/>
 <path d="M4968 2903 c45 -2 119 -2 165 0 45 1 8 3 -83 3 -91 0 -128 -2 -82 -3z"/>
 <path d="M8577 2775 c-31 -63 -55 -115 -52 -115 7 0 117 221 113 226 -2 2 -29 -48 -61 -111z"/>
 <path d="M1480 2856 c0 -10 70 -146 75 -146 3 0 -11 33 -31 73 -38 74 -44 85 -44 73z"/>
 <path d="M8490 2610 c-11 -22 -18 -40 -15 -40 2 0 14 18 25 40 11 22 18 40 15 40 -2 0 -14 -18 -25 -40z"/>
 <path d="M1699 2455 c5 -11 17 -29 26 -40 l16 -20 -10 20 c-5 11 -17 29 -26 40 l-16 20 10 -20z"/>
 <path d="M8336 2360 c-36 -55 -64 -100 -61 -100 2 0 31 39 63 88 68 101 75 112 69 112 -2 0 -34 -45 -71 -100z"/>
 <path d="M1810 2285 c17 -25 33 -45 36 -45 3 0 -9 20 -26 45 -17 25 -33 45 -36 45 -3 0 9 -20 26 -45z"/>
 <path d="M8219 2193 c-23 -32 -72 -94 -108 -138 -36 -44 -57 -74 -48 -66 28 22 214 261 204 261 -2 0 -24 -26 -48 -57z"/>
 <path d="M1956 2090 c26 -33 54 -66 63 -72 8 -7 -11 20 -43 60 -32 39 -60 72 -63 72 -2 0 17 -27 43 -60z"/>
 <path d="M2030 1997 c0 -2 15 -16 33 -33 l32 -29 -29 33 c-28 30 -36 37 -36 29z"/>
 <path d="M7995 1918 l-50 -53 53 50 c48 46 57 55 49 55 -1 0 -25 -24 -52 -52z"/>
 <path d="M2155 1860 c38 -38 72 -70 74 -70 3 0 -26 32 -64 70 -38 39 -72 70 -74 70 -3 0 26 -31 64 -70z"/>
 <path d="M7870 1784 c-106 -107 -284 -264 -403 -357 -108 -84 -145 -116 -87 -76 73 50 229 179 340 281 118 109 238 228 229 228 -2 0 -38 -34 -79 -76z"/>
 <path d="M2255 1754 c68 -68 187 -175 150 -135 -22 23 -71 70 -110 104 -38 33 -56 47 -40 31z"/>
 <path d="M2459 1567 c16 -20 111 -101 111 -94 0 2 -28 28 -62 58 -35 29 -57 46 -49 36z"/>
 <path d="M2580 1467 c0 -3 18 -20 40 -37 22 -17 40 -29 40 -27 0 3 -18 20 -40 37 -22 17 -40 29 -40 27z"/>
 <path d="M2713 1363 c4 -5 41 -34 84 -63 43 -29 71 -46 63 -38 -23 22 -154 113 -147 101z"/>
 <path d="M7305 1304 l-30 -26 33 22 c17 12 32 23 32 26 0 7 -4 5 -35 -22z"/>
 <path d="M2895 1235 c11 -9 29 -21 40 -26 l20 -10 -20 16 c-11 9 -29 21 -40 26 l-20 10 20 -16z"/>
 <path d="M7173 1219 c-35 -22 -46 -37 -15 -20 22 13 58 40 52 41 -3 0 -20 -10 -37 -21z"/>
 <path d="M2975 1185 c11 -9 29 -21 40 -26 l20 -10 -20 16 c-11 9 -29 21 -40 26 l-20 10 20 -16z"/>
 <path d="M3040 1146 c0 -3 14 -12 30 -21 17 -9 30 -13 30 -11 0 3 -13 12 -30 21 -16 9 -30 13 -30 11z"/>
 <path d="M6978 1104 c-38 -20 -36 -28 2 -9 17 9 30 18 30 20 0 7 -1 6 -32 -11z"/>
 <path d="M3110 1106 c0 -3 14 -12 30 -21 17 -9 30 -13 30 -11 0 3 -13 12 -30 21 -16 9 -30 13 -30 11z"/>
 <path d="M6820 1020 c-52 -27 -92 -49 -87 -49 10 -1 187 88 187 94 0 7 5 9 -100 -45z"/>
 <path d="M3420 945 c14 -8 30 -14 35 -14 6 0 -1 6 -15 14 -14 8 -29 14 -35 14 -5 0 1 -6 15 -14z"/>
 <path d="M6640 935 c-14 -8 -20 -14 -15 -14 6 0 21 6 35 14 14 8 21 14 15 14 -5 0 -21 -6 -35 -14z"/>
 <path d="M3560 885 c14 -8 30 -14 35 -14 6 0 -1 6 -15 14 -14 8 -29 14 -35 14 -5 0 1 -6 15 -14z"/>
 <path d="M6285 800 c-60 -21 -105 -39 -99 -39 12 -1 215 66 222 74 10 10 -14 3 -123 -35z"/>
 <path d="M3775 805 c17 -8 37 -14 45 -14 8 0 -1 7 -20 14 -46 18 -64 17 -25 0z"/>
 <path d="M6055 730 c-13 -5 -14 -9 -5 -9 8 0 24 4 35 9 13 5 14 9 5 9 -8 0 -24 -4 -35 -9z"/>
 <path d="M4563 623 c9 -2 25 -2 35 0 9 3 1 5 -18 5 -19 0 -27 -2 -17 -5z"/>
 <path d="M5508 623 c12 -2 30 -2 40 0 9 3 -1 5 -23 4 -22 0 -30 -2 -17 -4z"/>
 <path d="M4658 613 c12 -2 30 -2 40 0 9 3 -1 5 -23 4 -22 0 -30 -2 -17 -4z"/>
 <path d="M5418 613 c12 -2 30 -2 40 0 9 3 -1 5 -23 4 -22 0 -30 -2 -17 -4z"/>
 <path d="M4768 603 c17 -2 47 -2 65 0 17 2 3 4 -33 4 -36 0 -50 -2 -32 -4z"/>
 <path d="M5278 603 c17 -2 47 -2 65 0 17 2 3 4 -33 4 -36 0 -50 -2 -32 -4z"/>
 <path d="M4983 593 c37 -2 97 -2 135 0 37 2 6 3 -68 3 -74 0 -105 -1 -67 -3z"/>
 </g>
<g id="layer104" fill="#818081" stroke="none">
 <path d="M4728 8483 c12 -2 30 -2 40 0 9 3 -1 5 -23 4 -22 0 -30 -2 -17 -4z"/>
 <path d="M5268 8483 c23 -2 59 -2 80 0 20 2 1 4 -43 4 -44 0 -61 -2 -37 -4z"/>
 <path d="M3340 8110 c-19 -11 -30 -19 -25 -19 6 0 26 8 45 19 19 11 31 19 25 19 -5 0 -26 -8 -45 -19z"/>
 <path d="M3228 8054 c-38 -20 -36 -28 2 -9 17 9 30 18 30 20 0 7 -1 6 -32 -11z"/>
 <path d="M7640 7525 c19 -19 36 -35 39 -35 3 0 -10 16 -29 35 -19 19 -36 35 -39 35 -3 0 10 -16 29 -35z"/>
 <path d="M2270 7343 l-185 -188 188 185 c103 102 187 186 187 187 0 8 -18 -10 -190 -184z"/>
 <path d="M7840 7335 c85 -85 157 -155 160 -155 3 0 -65 70 -150 155 -85 85 -157 155 -160 155 -3 0 65 -70 150 -155z"/>
 <path d="M8030 7135 c19 -19 36 -35 39 -35 3 0 -10 16 -29 35 -19 19 -36 35 -39 35 -3 0 10 -16 29 -35z"/>
 <path d="M8535 6400 c9 -16 18 -30 21 -30 2 0 -2 14 -11 30 -9 17 -18 30 -21 30 -2 0 2 -13 11 -30z"/>
 <path d="M1509 6299 c-22 -45 -39 -83 -37 -85 2 -2 23 35 46 81 23 47 40 85 37 85 -3 0 -23 -36 -46 -81z"/>
 <path d="M4598 6193 c292 -2 772 -2 1065 0 292 1 53 2 -533 2 -586 0 -825 -1 -532 -2z"/>
 <path d="M3728 6183 c12 -2 32 -2 45 0 12 2 2 4 -23 4 -25 0 -35 -2 -22 -4z"/>
 <path d="M6478 6183 c12 -2 30 -2 40 0 9 3 -1 5 -23 4 -22 0 -30 -2 -17 -4z"/>
 <path d="M7070 5928 c41 -45 50 -53 50 -45 0 2 -21 23 -47 47 l-48 45 45 -47z"/>
 <path d="M3064 5868 l-29 -33 33 29 c30 28 37 36 29 36 -2 0 -16 -15 -33 -32z"/>
 <path d="M2864 5589 c-14 -28 -24 -53 -22 -55 2 -2 16 21 31 51 15 30 25 55 22 55 -3 0 -16 -23 -31 -51z"/>
 <path d="M2753 5190 c0 -30 2 -43 4 -27 2 15 2 39 0 55 -2 15 -4 2 -4 -28z"/>
 <path d="M2753 4990 c0 -30 2 -43 4 -27 2 15 2 39 0 55 -2 15 -4 2 -4 -28z"/>
 <path d="M8983 4905 c0 -22 2 -30 4 -17 2 12 2 30 0 40 -3 9 -5 -1 -4 -23z"/>
 <path d="M1113 4855 c0 -22 2 -30 4 -17 2 12 2 30 0 40 -3 9 -5 -1 -4 -23z"/>
 <path d="M8993 4785 c0 -27 2 -38 4 -22 2 15 2 37 0 50 -2 12 -4 0 -4 -28z"/>
 <path d="M1104 4550 c0 -118 2 -167 3 -107 2 59 2 155 0 215 -1 59 -3 10 -3 -108z"/>
 <path d="M7070 4593 l-55 -58 58 55 c53 50 62 60 54 60 -1 0 -27 -26 -57 -57z"/>
 <path d="M8993 4305 c0 -27 2 -38 4 -22 2 15 2 37 0 50 -2 12 -4 0 -4 -28z"/>
 <path d="M6362 4293 c1 -37 1 -37 5 -6 3 26 9 33 31 36 24 4 24 4 -5 6 -32 1 -33 0 -31 -36z"/>
 <path d="M1113 4245 c0 -27 2 -38 4 -22 2 15 2 37 0 50 -2 12 -4 0 -4 -28z"/>
 <path d="M8983 4185 c0 -22 2 -30 4 -17 2 12 2 30 0 40 -3 9 -5 -1 -4 -23z"/>
 <path d="M6363 4150 c0 -30 2 -43 4 -27 2 15 2 39 0 55 -2 15 -4 2 -4 -28z"/>
 <path d="M3330 4125 c0 -7 61 -37 66 -33 2 3 -12 12 -31 21 -19 9 -35 15 -35 12z"/>
 <path d="M1132 4040 c0 -19 2 -27 5 -17 2 9 2 25 0 35 -3 9 -5 1 -5 -18z"/>
 <path d="M6352 4040 c0 -19 2 -27 5 -17 2 9 2 25 0 35 -3 9 -5 1 -5 -18z"/>
 <path d="M6222 3625 c-12 -25 -20 -45 -17 -45 7 0 47 81 43 86 -3 2 -14 -17 -26 -41z"/>
 <path d="M4120 3285 c47 -47 87 -85 90 -85 2 0 -33 38 -80 85 -47 47 -87 85 -90 85 -2 0 33 -38 80 -85z"/>
 <path d="M5979 3283 l-34 -38 38 34 c34 33 42 41 34 41 -2 0 -19 -17 -38 -37z"/>
 <path d="M4410 3065 c0 -7 101 -57 106 -53 2 2 -21 16 -51 31 -30 15 -55 25 -55 22z"/>
 <path d="M4982 2903 c37 -2 100 -2 140 0 40 1 10 3 -67 3 -77 0 -110 -1 -73 -3z"/>
 <path d="M8622 2865 c-17 -37 -14 -45 4 -12 9 16 14 31 11 33 -2 2 -9 -7 -15 -21z"/>
 <path d="M1480 2856 c0 -10 70 -146 75 -146 3 0 -11 33 -31 73 -38 74 -44 85 -44 73z"/>
 <path d="M8535 2690 c-9 -16 -13 -30 -11 -30 3 0 12 14 21 30 9 17 13 30 11 30 -3 0 -12 -13 -21 -30z"/>
 <path d="M1820 2270 c12 -16 24 -30 26 -30 3 0 -4 14 -16 30 -12 17 -24 30 -26 30 -3 0 4 -13 16 -30z"/>
 <path d="M8009 1933 l-34 -38 38 34 c34 33 42 41 34 41 -2 0 -19 -17 -38 -37z"/>
 <path d="M2125 1890 c21 -22 41 -40 44 -40 3 0 -13 18 -34 40 -21 22 -41 40 -44 40 -3 0 13 -18 34 -40z"/>
 <path d="M7835 1748 l-110 -113 113 110 c61 60 112 111 112 112 0 8 -13 -5 -115 -109z"/>
 <path d="M2260 1745 c19 -19 36 -35 39 -35 3 0 -10 16 -29 35 -19 19 -36 35 -39 35 -3 0 10 -16 29 -35z"/>
 <path d="M2395 1620 c21 -22 41 -40 44 -40 3 0 -13 18 -34 40 -21 22 -41 40 -44 40 -3 0 13 -18 34 -40z"/>
 <path d="M7659 1583 l-34 -38 38 34 c34 33 42 41 34 41 -2 0 -19 -17 -38 -37z"/>
 <path d="M6878 1049 c-21 -11 -38 -22 -38 -24 0 -3 18 4 40 15 22 11 40 23 40 25 0 7 0 7 -42 -16z"/>
 <path d="M6750 985 c-14 -8 -20 -14 -15 -14 6 0 21 6 35 14 14 8 21 14 15 14 -5 0 -21 -6 -35 -14z"/>
 <path d="M4653 613 c9 -2 25 -2 35 0 9 3 1 5 -18 5 -19 0 -27 -2 -17 -5z"/>
 <path d="M5423 613 c9 -2 25 -2 35 0 9 3 1 5 -18 5 -19 0 -27 -2 -17 -5z"/>
 <path d="M4768 603 c18 -2 45 -2 60 0 15 2 0 4 -33 4 -33 0 -45 -2 -27 -4z"/>
 <path d="M5288 603 c18 -2 45 -2 60 0 15 2 0 4 -33 4 -33 0 -45 -2 -27 -4z"/>
 <path d="M4983 593 c37 -2 97 -2 135 0 37 2 6 3 -68 3 -74 0 -105 -1 -67 -3z"/>
 </g>
<g id="layer105" fill="#a0a0a0" stroke="none">
 <path d="M4723 8483 c9 -2 25 -2 35 0 9 3 1 5 -18 5 -19 0 -27 -2 -17 -5z"/>
 <path d="M5273 8483 c20 -2 54 -2 75 0 20 2 3 4 -38 4 -41 0 -58 -2 -37 -4z"/>
 <path d="M2419 7493 l-34 -38 38 34 c20 19 37 36 37 38 0 8 -8 0 -41 -34z"/>
 <path d="M7840 7335 c85 -85 157 -155 160 -155 3 0 -65 70 -150 155 -85 85 -157 155 -160 155 -3 0 65 -70 150 -155z"/>
 <path d="M2125 7198 l-40 -43 43 40 c23 21 42 40 42 42 0 8 -9 0 -45 -39z"/>
 <path d="M3738 6183 c12 -2 30 -2 40 0 9 3 -1 5 -23 4 -22 0 -30 -2 -17 -4z"/>
 <path d="M6478 6183 c12 -2 30 -2 40 0 9 3 -1 5 -23 4 -22 0 -30 -2 -17 -4z"/>
 <path d="M2753 5175 c0 -22 2 -30 4 -17 2 12 2 30 0 40 -3 9 -5 -1 -4 -23z"/>
 <path d="M2753 5005 c0 -22 2 -30 4 -17 2 12 2 30 0 40 -3 9 -5 -1 -4 -23z"/>
 <path d="M8993 4790 c0 -25 2 -35 4 -22 2 12 2 32 0 45 -2 12 -4 2 -4 -23z"/>
 <path d="M1104 4550 c0 -118 2 -167 3 -107 2 59 2 155 0 215 -1 59 -3 10 -3 -108z"/>
 <path d="M8993 4305 c0 -27 2 -38 4 -22 2 15 2 37 0 50 -2 12 -4 0 -4 -28z"/>
 <path d="M6363 4165 c0 -22 2 -30 4 -17 2 12 2 30 0 40 -3 9 -5 -1 -4 -23z"/>
 <path d="M4120 3285 c35 -36 67 -65 69 -65 3 0 -24 29 -59 65 -35 36 -67 65 -69 65 -3 0 24 -29 59 -65z"/>
 <path d="M4982 2903 c37 -2 100 -2 140 0 40 1 10 3 -67 3 -77 0 -110 -1 -73 -3z"/>
 <path d="M7835 1748 l-110 -113 113 110 c61 60 112 111 112 112 0 8 -13 -5 -115 -109z"/>
 <path d="M2260 1745 c19 -19 36 -35 39 -35 3 0 -10 16 -29 35 -19 19 -36 35 -39 35 -3 0 10 -16 29 -35z"/>
 <path d="M4758 603 c12 -2 30 -2 40 0 9 3 -1 5 -23 4 -22 0 -30 -2 -17 -4z"/>
 <path d="M5318 603 c12 -2 30 -2 40 0 9 3 -1 5 -23 4 -22 0 -30 -2 -17 -4z"/>
 <path d="M4983 593 c37 -2 97 -2 135 0 37 2 6 3 -68 3 -74 0 -105 -1 -67 -3z"/>
 </g>
<g id="layer106" fill="#cccbcc" stroke="none">
 <path d="M5333 8483 c9 -2 25 -2 35 0 9 3 1 5 -18 5 -19 0 -27 -2 -17 -5z"/>
 <path d="M2424 7498 l-29 -33 33 29 c17 17 32 31 32 33 0 8 -8 1 -36 -29z"/>
 <path d="M7840 7335 c85 -85 157 -155 160 -155 3 0 -65 70 -150 155 -85 85 -157 155 -160 155 -3 0 65 -70 150 -155z"/>
 <path d="M2125 7198 l-40 -43 43 40 c23 21 42 40 42 42 0 8 -9 0 -45 -39z"/>
 <path d="M2753 5175 c0 -22 2 -30 4 -17 2 12 2 30 0 40 -3 9 -5 -1 -4 -23z"/>
 <path d="M2753 5005 c0 -22 2 -30 4 -17 2 12 2 30 0 40 -3 9 -5 -1 -4 -23z"/>
 <path d="M1103 4725 c0 -22 2 -30 4 -17 2 12 2 30 0 40 -3 9 -5 -1 -4 -23z"/>
 <path d="M1103 4375 c0 -22 2 -30 4 -17 2 12 2 30 0 40 -3 9 -5 -1 -4 -23z"/>
 <path d="M6362 4170 c0 -19 2 -27 5 -17 2 9 2 25 0 35 -3 9 -5 1 -5 -18z"/>
 <path d="M4115 3290 c27 -27 51 -50 54 -50 3 0 -17 23 -44 50 -27 28 -51 50 -54 50 -3 0 17 -22 44 -50z"/>
 <path d="M5008 2903 c29 -2 74 -2 100 0 26 2 2 3 -53 3 -55 0 -76 -1 -47 -3z"/>
 <path d="M2260 1745 c19 -19 36 -35 39 -35 3 0 -10 16 -29 35 -19 19 -36 35 -39 35 -3 0 10 -16 29 -35z"/>
 <path d="M7754 1668 l-29 -33 33 29 c17 17 32 31 32 33 0 8 -8 1 -36 -29z"/>
 <path d="M4753 603 c9 -2 25 -2 35 0 9 3 1 5 -18 5 -19 0 -27 -2 -17 -5z"/>
 <path d="M5323 603 c9 -2 25 -2 35 0 9 3 1 5 -18 5 -19 0 -27 -2 -17 -5z"/>
 <path d="M4983 593 c37 -2 97 -2 135 0 37 2 6 3 -68 3 -74 0 -105 -1 -67 -3z"/>
 </g>

</svg>