<!DOCTYPE svg PUBLIC "-//W3C//DTD SVG 20010904//EN" "http://www.w3.org/TR/2001/REC-SVG-20010904/DTD/svg10.dtd">
<svg version="1.0" xmlns="http://www.w3.org/2000/svg" width="730px" height="680px" viewBox="0 0 7300 6800" preserveAspectRatio="xMidYMid meet">
<g id="layer101" fill="#000000" stroke="none">
 <path d="M3210 6394 c-417 -36 -587 -59 -828 -110 -659 -141 -1157 -413 -1430 -783 -75 -100 -162 -273 -199 -396 l-28 -90 0 -850 c0 -946 -2 -916 71 -1183 91 -331 244 -617 474 -885 59 -68 100 -124 97 -131 -3 -8 -182 -319 -398 -691 -372 -644 -391 -680 -391 -727 0 -57 19 -89 73 -126 42 -30 120 -27 165 5 20 14 149 228 414 686 l385 664 70 -47 c406 -274 881 -429 1520 -496 223 -24 747 -24 970 0 648 68 1164 241 1549 518 36 26 40 27 51 11 6 -10 180 -310 386 -666 263 -456 383 -655 404 -670 23 -17 44 -22 92 -22 57 0 65 3 98 35 42 40 60 96 47 143 -5 18 -184 334 -397 702 -213 368 -389 675 -392 682 -3 7 33 57 79 110 165 191 242 307 344 517 115 236 192 515 214 781 8 86 10 384 8 880 -4 739 -4 751 -26 828 -131 457 -522 825 -1112 1047 -321 121 -674 198 -1135 246 -121 12 -277 17 -645 19 -267 1 -505 1 -530 -1z m1816 -1132 c339 -78 609 -288 759 -587 120 -240 150 -490 90 -752 -59 -254 -233 -509 -448 -655 -85 -58 -249 -133 -342 -158 -44 -11 -120 -25 -170 -30 -126 -13 -2324 -13 -2454 0 -429 44 -802 346 -934 755 -43 134 -52 192 -51 345 0 124 5 161 28 255 60 240 198 460 380 604 174 138 387 225 596 241 52 4 626 7 1275 6 1165 -2 1181 -3 1271 -24z"/>
 <path d="M2485 4620 c-250 -53 -415 -333 -336 -568 55 -162 157 -258 326 -307 63 -19 177 -17 247 4 59 18 159 91 208 153 70 87 95 162 95 283 0 95 -2 104 -37 178 -74 156 -217 254 -381 262 -45 2 -100 0 -122 -5z m158 -312 c70 -36 98 -148 54 -209 -23 -31 -81 -59 -122 -59 -104 0 -167 114 -117 210 32 59 127 89 185 58z"/>
 <path d="M4691 4614 c-131 -35 -241 -128 -299 -253 -33 -71 -36 -83 -36 -176 -1 -110 19 -177 75 -261 76 -113 233 -194 373 -194 126 0 221 42 317 139 82 84 119 167 127 284 19 301 -268 539 -557 461z m180 -309 c66 -35 89 -130 48 -200 -42 -71 -158 -88 -215 -30 -22 22 -44 74 -44 105 0 31 22 84 44 105 37 35 118 45 167 20z"/>
 </g>

</svg>